<?xml version="1.0" encoding="UTF-8"?>
<!DOCTYPE svg PUBLIC "-//W3C//DTD SVG 1.1//EN" "http://www.w3.org/Graphics/SVG/1.1/DTD/svg11.dtd">
<!-- Creator: CorelDRAW -->
<svg xmlns="http://www.w3.org/2000/svg" xml:space="preserve" width="270.933mm" height="203.2mm" version="1.1" style="shape-rendering:geometricPrecision; text-rendering:geometricPrecision; image-rendering:optimizeQuality; fill-rule:evenodd; clip-rule:evenodd"
viewBox="0 0 27093.32 20320"
 xmlns:xlink="http://www.w3.org/1999/xlink"
 xmlns:xodm="http://www.corel.com/coreldraw/odm/2003">
 <defs>
  <style type="text/css">
   <![CDATA[
    .str0 {stroke:black;stroke-width:79.37;stroke-miterlimit:22.9256}
    .str1 {stroke:black;stroke-width:132.29;stroke-miterlimit:22.9256}
    .fil1 {fill:none}
    .fil0 {fill:url(#id0)}
   ]]>
  </style>
  <linearGradient id="id0" gradientUnits="userSpaceOnUse" x1="8031.76" y1="8937.15" x2="18929.86" y2="8937.15">
   <stop offset="0" style="stop-opacity:1; stop-color:#9DFF00"/>
   <stop offset="1" style="stop-opacity:1; stop-color:#15B809"/>
  </linearGradient>
 </defs>
 <g id="Слой_x0020_1">
  <metadata id="CorelCorpID_0Corel-Layer"/>
  <circle class="fil0 str0" cx="13480.81" cy="8937.15" r="5449.05"/>
  <path class="fil1 str1" d="M9633.48 12795.93c870.1,-1018.37 1740.2,-2036.74 2610.3,-3055.12l1305.15 -1527.56 2888.05 -3372.02c244.95,-285.99 129.02,-291.47 -222.88,-92.53 -1373.1,776.24 -1208.48,952.34 -3656.89,1439.7 -128.34,17.05 -1276.1,275.51 -1396.58,322.92 -94.77,37.3 -237.56,98.69 -326.35,147.05 -296.07,161.26 -433.28,280.22 -664.14,512.51 -823.78,828.89 -474.94,3234.34 -217.9,4978.3 53.4,362.31 -25.66,212.63 363.19,304.16 1284.22,302.05 2839.43,642.63 4056.98,-53.96 255.48,-146.17 644.52,-495.68 890.94,-699.65 353.83,-292.86 762.4,-623.56 1086.13,-944.39 170.86,-169.33 201.4,-269.56 279.31,-499.99 218.55,-646.39 395.85,-1554.44 423.11,-2240.91 47.1,-1186.22 -203.07,-2239.94 -476.45,-3379.91"/>
  <g id="_2030653667568">
   <path class="fil1 str1" d="M12896.36 8977.03c552.8,-13.45 1105.59,-26.91 1431.86,-39.87 326.28,-12.96 426.04,-25.43 563.09,-52.14 137.05,-26.71 311.41,-67.66 539.31,-312.58 227.9,-244.93 509.36,-693.84 207.02,-790.45 -302.33,-96.61 -1188.44,159.06 -2074.56,414.74"/>
   <path class="fil1 str1" d="M11600.08 10494.2c-127.61,-460.9 -255.21,-921.8 -528.92,-1179.41 -273.71,-257.62 -693.51,-311.94 -686.22,-539.91 7.29,-227.97 441.67,-629.59 823.71,-734.06 382.04,-104.48 711.73,88.19 875.53,421.05 163.79,332.85 161.7,805.89 160.65,1042.42 -1.05,236.52 -1.05,236.52 -1.05,236.52"/>
   <path class="fil1 str1" d="M11600.08 10494.2c582.34,-3.36 1164.67,-6.73 1474.79,223.38 310.13,230.1 348.04,693.66 670.09,435.98 322.05,-257.67 928.25,-1236.6 781.31,-1665.38 -146.94,-428.78 -1047.02,-307.43 -1550.49,-176.51 -503.47,130.91 -610.34,271.37 -717.21,411.84"/>
   <path class="fil1 str1" d="M12896.36 8977.03c-126.53,-331.96 -253.07,-663.91 -425.88,-924.56 -172.82,-260.66 -391.91,-450.01 -601.21,-643.48 -209.3,-193.48 -408.79,-391.07 -139.93,-511.39 268.86,-120.33 1006.08,-163.37 1389.77,66.03 383.68,229.4 413.82,731.25 443.97,1233.1"/>
  </g>
 </g>
</svg>
